<svg width="152" height="136" viewBox="0 0 152 136" fill="none" xmlns="http://www.w3.org/2000/svg">
<path d="M11.3308 33.971L76.1024 1.1403L140.361 34.9637L139.849 101.525L75.0776 134.356L10.8188 100.533L11.3308 33.971Z" fill="#87A399" stroke="#2D3C29"/>
<path d="M74.8625 72.3685C76.1322 73.1146 77.7664 72.6902 78.5126 71.4204C79.2588 70.1507 78.8343 68.5165 77.5646 67.7703C76.2948 67.0241 74.6606 67.4486 73.9144 68.7183C73.1683 69.9881 73.5927 71.6223 74.8625 72.3685ZM39.6582 48.5875L40.6844 52.5389L44.6358 51.5126L43.6095 47.5612L39.6582 48.5875ZM76.4668 69.6383L47.833 52.8115L47.3263 53.6737L75.9602 70.5005L76.4668 69.6383ZM47.833 52.8115L42.4003 49.619L41.8936 50.4811L47.3263 53.6737L47.833 52.8115Z" fill="#496D61"/>
<path d="M75.0767 67.2233C73.7956 67.9498 73.346 69.5773 74.0726 70.8584C74.7991 72.1395 76.4266 72.589 77.7077 71.8625C78.9888 71.1359 79.4383 69.5084 78.7118 68.2273C77.9852 66.9463 76.3577 66.4967 75.0767 67.2233ZM113.274 48.6259L109.339 47.539L108.252 51.4741L112.187 52.5611L113.274 48.6259ZM76.6388 69.9778L105.528 53.5935L105.035 52.7237L76.1455 69.108L76.6388 69.9778ZM105.528 53.5935L111.009 50.485L110.516 49.6151L105.035 52.7237L105.528 53.5935Z" fill="#496D61"/>
<path d="M79.3622 65.8758C79.3735 64.4031 78.1888 63.2 76.7161 63.1887C75.2434 63.1774 74.0403 64.362 74.029 65.8348C74.0177 67.3075 75.2023 68.5105 76.6751 68.5219C78.1478 68.5332 79.3508 67.3485 79.3622 65.8758ZM76.3694 108.254L79.2783 105.39L76.4138 102.481L73.5049 105.345L76.3694 108.254ZM76.1956 65.8514L75.9401 99.0625L76.9401 99.0702L77.1956 65.8591L76.1956 65.8514ZM75.9401 99.0625L75.8916 105.364L76.8916 105.371L76.9401 99.0702L75.9401 99.0625Z" fill="#496D61"/>
<path d="M69.0748 57.5927L63.2161 50.6532C62.0724 49.2984 61.7488 47.2806 62.3959 45.5388L67.849 30.861L71.3709 22.4791C72.8855 18.8746 77.3611 18.9685 78.7472 22.6339L81.8992 30.9691L86.8204 45.8794C87.3734 47.5551 87.0484 49.4502 85.9834 50.7601L80.6301 57.3445C79.0094 59.3378 76.4462 59.2336 74.9008 57.5852C73.3909 59.3754 70.7549 59.5828 69.0748 57.5927Z" fill="#87A399"/>
<path d="M69.1005 81.5263L66.8116 90.8654C66.3648 92.6886 65.0119 94.0248 63.3827 94.2523L49.6533 96.1686L41.6099 96.8552C38.1508 97.1505 35.9921 92.6298 38.052 89.4046L42.7362 82.0704L51.4729 69.6676C52.4547 68.2738 54.0385 67.6475 55.5519 68.0546L63.1588 70.1007C65.4617 70.7201 66.6602 73.3345 66.193 75.7066C68.2884 76.3172 69.757 78.8479 69.1005 81.5263Z" fill="#87A399"/>
<path d="M89.8204 70.9281L97.968 68.5286C99.5586 68.0601 101.235 68.7417 102.217 70.2561L110.493 83.0175L115.015 90.7127C116.959 94.022 114.643 98.4488 111.197 98.0086L103.36 97.0076L89.7025 94.5C88.1676 94.2182 86.9088 92.9494 86.4604 91.2324L84.2069 82.602C83.5247 79.9892 84.8894 77.479 86.9019 76.7553C86.3164 74.3544 87.4839 71.6163 89.8204 70.9281Z" fill="#87A399"/>
<path d="M73.7661 72.6266C73.7619 73.1789 74.2061 73.63 74.7584 73.6343C75.3107 73.6385 75.7618 73.1943 75.7661 72.642L73.7661 72.6266ZM69.0748 57.5927L69.8389 56.9476L69.0748 57.5927ZM63.2161 50.6532L63.9802 50.0081L63.2161 50.6532ZM85.9834 50.7601L85.2075 50.1293L85.2075 50.1293L85.9834 50.7601ZM80.6301 57.3445L81.406 57.9753L80.6301 57.3445ZM62.3959 45.5388L61.4585 45.1905L62.3959 45.5388ZM67.849 30.861L66.9271 30.4736L66.9189 30.493L66.9116 30.5128L67.849 30.861ZM71.3709 22.4791L70.449 22.0918L71.3709 22.4791ZM73.7582 55.4052L74.7305 55.1711L74.7305 55.1711L73.7582 55.4052ZM78.7472 22.6339L77.8118 22.9877L78.7472 22.6339ZM81.8992 30.9691L82.8488 30.6557L82.8421 30.6354L82.8345 30.6154L81.8992 30.9691ZM86.8204 45.8794L85.8708 46.1929L86.8204 45.8794ZM75.8957 55.5787L76.8672 55.8157L75.8957 55.5787ZM78.0999 69.1242C78.5618 68.8215 78.6909 68.2016 78.3882 67.7397C78.0855 67.2777 77.4656 67.1487 77.0037 67.4514L78.0999 69.1242ZM69.1005 81.5263L68.1293 81.2882L69.1005 81.5263ZM66.8116 90.8654L67.7829 91.1034L66.8116 90.8654ZM55.5519 68.0546L55.2922 69.0202L55.5519 68.0546ZM63.1588 70.1007L63.4185 69.135L63.1588 70.1007ZM63.3827 94.2523L63.5209 95.2427L63.3827 94.2523ZM49.6533 96.1686L49.7384 97.165L49.765 97.1627L49.7915 97.159L49.6533 96.1686ZM41.6099 96.8552L41.5248 95.8589L41.5248 95.8589L41.6099 96.8552ZM65.1264 77.9428L64.3641 77.2956L64.3641 77.2956L65.1264 77.9428ZM38.052 89.4046L38.8948 89.9428L38.8948 89.9428L38.052 89.4046ZM42.7362 82.0704L41.9187 81.4945L41.9057 81.513L41.8935 81.5321L42.7362 82.0704ZM51.4729 69.6676L52.2904 70.2435L52.2904 70.2435L51.4729 69.6676ZM64.192 75.7192L63.9082 74.7604L64.192 75.7192ZM70.3443 69.084C70.3216 72.0294 72.691 74.4355 75.6364 74.4582C78.5818 74.4808 80.9879 72.1115 81.0106 69.166C81.0333 66.2206 78.6639 63.8145 75.7185 63.7918C72.773 63.7692 70.3669 66.1385 70.3443 69.084ZM89.8204 70.9281L90.103 71.8874L89.8204 70.9281ZM97.968 68.5286L97.6855 67.5693L97.968 68.5286ZM86.4604 91.2324L87.428 90.9798L86.4604 91.2324ZM84.2069 82.602L85.1745 82.3493L84.2069 82.602ZM102.217 70.2561L103.056 69.7119L102.217 70.2561ZM110.493 83.0175L111.356 82.5109L111.344 82.4919L111.332 82.4733L110.493 83.0175ZM115.015 90.7127L115.877 90.2061L115.015 90.7127ZM89.1111 76.6991L88.8277 77.6581L88.8277 77.6581L89.1111 76.6991ZM111.197 98.0086L111.323 97.0167L111.197 98.0086ZM103.36 97.0076L103.18 97.9912L103.207 97.9961L103.234 97.9995L103.36 97.0076ZM89.7025 94.5L89.8831 93.5165L89.8831 93.5165L89.7025 94.5ZM87.9081 78.7491L87.1447 79.3952L87.9081 78.7491ZM69.8389 56.9476L63.9802 50.0081L62.452 51.2983L68.3107 58.2378L69.8389 56.9476ZM85.2075 50.1293L79.8542 56.7136L81.406 57.9753L86.7593 51.391L85.2075 50.1293ZM63.3333 45.887L68.7864 31.2093L66.9116 30.5128L61.4585 45.1905L63.3333 45.887ZM68.7709 31.2484L72.2928 22.8665L70.449 22.0918L66.9271 30.4736L68.7709 31.2484ZM74.7305 55.1711L68.8212 30.627L66.8768 31.0951L72.786 55.6392L74.7305 55.1711ZM77.8118 22.9877L80.9638 31.3228L82.8345 30.6154L79.6825 22.2802L77.8118 22.9877ZM80.9496 31.2825L85.8708 46.1929L87.77 45.566L82.8488 30.6557L80.9496 31.2825ZM76.8672 55.8157L82.8707 31.2061L80.9277 30.7321L74.9242 55.3417L76.8672 55.8157ZM79.8542 56.7136C78.6395 58.2076 76.7877 58.1357 75.6304 56.9013L74.1713 58.2691C76.1047 60.3315 79.3794 60.468 81.406 57.9753L79.8542 56.7136ZM75.6304 56.9013C75.2322 56.4765 74.9059 55.9 74.7305 55.1711L72.786 55.6392C73.0386 56.6882 73.5246 57.5793 74.1713 58.2691L75.6304 56.9013ZM86.7593 51.391C88.0509 49.8024 88.4241 47.5478 87.77 45.566L85.8708 46.1929C86.3228 47.5623 86.046 49.098 85.2075 50.1293L86.7593 51.391ZM72.2928 22.8665C72.9019 21.417 74.0418 20.8082 75.0862 20.8301C76.1318 20.852 77.253 21.51 77.8118 22.9877L79.6825 22.2802C78.8552 20.0925 77.0457 18.8708 75.1282 18.8305C73.2097 18.7903 71.3545 19.9367 70.449 22.0918L72.2928 22.8665ZM63.9802 50.0081C63.0827 48.9449 62.8043 47.3108 63.3333 45.887L61.4585 45.1905C60.6932 47.2504 61.0621 49.6519 62.452 51.2983L63.9802 50.0081ZM68.3107 58.2378C70.4237 60.7406 73.7898 60.4535 75.6652 58.2299L74.1364 56.9405C72.992 58.2973 71.0862 58.4251 69.8389 56.9476L68.3107 58.2378ZM75.6652 58.2299C76.2192 57.5731 76.6374 56.7577 76.8672 55.8157L74.9242 55.3417C74.7643 55.9969 74.4825 56.5301 74.1364 56.9405L75.6652 58.2299ZM68.1293 81.2882L65.8404 90.6273L67.7829 91.1034L70.0718 81.7643L68.1293 81.2882ZM55.2922 69.0202L62.899 71.0664L63.4185 69.135L55.8117 67.0889L55.2922 69.0202ZM63.2444 93.2619L49.5151 95.1782L49.7915 97.159L63.5209 95.2427L63.2444 93.2619ZM49.5683 95.1722L41.5248 95.8589L41.6949 97.8516L49.7384 97.165L49.5683 95.1722ZM64.3641 77.2956L48.891 95.5214L50.4156 96.8158L65.8887 78.59L64.3641 77.2956ZM38.8948 89.9428L43.579 82.6086L41.8935 81.5321L37.2092 88.8663L38.8948 89.9428ZM43.5538 82.6463L52.2904 70.2435L50.6553 69.0918L41.9187 81.4945L43.5538 82.6463ZM63.9082 74.7604L42.4524 81.1115L43.0201 83.0293L64.4758 76.6781L63.9082 74.7604ZM62.899 71.0664C64.5574 71.5124 65.6073 73.5055 65.2119 75.5134L67.1742 75.8998C67.7131 73.1635 66.366 69.9278 63.4185 69.135L62.899 71.0664ZM65.2119 75.5134C65.0843 76.1613 64.8054 76.7758 64.3641 77.2956L65.8887 78.59C66.5682 77.7897 66.9859 76.8558 67.1742 75.8998L65.2119 75.5134ZM55.8117 67.0889C53.8478 66.5606 51.8507 67.3947 50.6553 69.0918L52.2904 70.2435C53.0586 69.1529 54.2293 68.7343 55.2922 69.0202L55.8117 67.0889ZM41.5248 95.8589C40.3065 95.9629 39.2446 95.2356 38.6637 94.0192C38.0823 92.8016 38.0695 91.235 38.8948 89.9428L37.2092 88.8663C35.9746 90.7994 36.0112 93.1057 36.8589 94.881C37.7072 96.6574 39.4542 98.0429 41.6949 97.8516L41.5248 95.8589ZM65.8404 90.6273C65.4733 92.125 64.3993 93.1007 63.2444 93.2619L63.5209 95.2427C65.6246 94.949 67.2563 93.2522 67.7829 91.1034L65.8404 90.6273ZM70.0718 81.7643C70.8374 78.6405 69.1529 75.5276 66.4728 74.7465L65.9132 76.6667C67.4239 77.1069 68.6765 79.0554 68.1293 81.2882L70.0718 81.7643ZM66.4728 74.7465C65.6664 74.5115 64.7905 74.4992 63.9082 74.7604L64.4758 76.6781C64.986 76.5271 65.4706 76.5376 65.9133 76.6667L66.4728 74.7465ZM90.103 71.8874L98.2505 69.4878L97.6855 67.5693L89.5379 69.9689L90.103 71.8874ZM87.428 90.9798L85.1745 82.3493L83.2393 82.8546L85.4929 91.4851L87.428 90.9798ZM101.378 70.8002L109.654 83.5616L111.332 82.4733L103.056 69.7119L101.378 70.8002ZM109.631 83.5241L114.153 91.2193L115.877 90.2061L111.356 82.5109L109.631 83.5241ZM88.8277 77.6581L110.21 83.9765L110.777 82.0585L89.3945 75.7401L88.8277 77.6581ZM111.323 97.0167L103.487 96.0157L103.234 97.9995L111.07 99.0005L111.323 97.0167ZM103.541 96.024L89.8831 93.5165L89.5219 95.4836L103.18 97.9912L103.541 96.024ZM87.1447 79.3952L102.597 97.6536L104.124 96.3616L88.6714 78.1031L87.1447 79.3952ZM85.1745 82.3493C84.6077 80.1788 85.7696 78.2251 87.2402 77.6964L86.5635 75.8143C84.0091 76.7328 82.4416 79.7996 83.2393 82.8546L85.1745 82.3493ZM87.2402 77.6964C87.7255 77.5219 88.2621 77.491 88.8277 77.6581L89.3945 75.7401C88.4113 75.4495 87.4391 75.4995 86.5635 75.8143L87.2402 77.6964ZM85.4929 91.4851C86.0225 93.5134 87.5436 95.1204 89.5219 95.4836L89.8831 93.5165C88.7917 93.3161 87.795 92.3854 87.428 90.9798L85.4929 91.4851ZM114.153 91.2193C114.934 92.5482 114.864 94.1135 114.241 95.303C113.62 96.4906 112.536 97.1716 111.323 97.0167L111.07 99.0005C113.303 99.2858 115.101 97.9734 116.013 96.2304C116.924 94.4892 117.041 92.1865 115.877 90.2061L114.153 91.2193ZM98.2505 69.4878C99.3672 69.1589 100.608 69.612 101.378 70.8002L103.056 69.7119C101.862 67.8713 99.75 66.9613 97.6855 67.5693L98.2505 69.4878ZM89.5379 69.9689C86.5579 70.8466 85.2536 74.2168 85.9304 76.9922L87.8734 76.5184C87.3793 74.492 88.4098 72.3861 90.103 71.8874L89.5379 69.9689ZM85.9304 76.9922C86.1389 77.8476 86.5361 78.6759 87.1447 79.3952L88.6714 78.1031C88.2772 77.6374 88.0139 77.0944 87.8734 76.5184L85.9304 76.9922ZM75.7661 72.642L76.1808 18.7371L74.1808 18.7217L73.7661 72.6266L75.7661 72.642ZM77.0037 67.4514L36.3503 94.0927L37.4465 95.7655L78.0999 69.1242L77.0037 67.4514ZM75.1165 69.9529L115.355 97.2165L116.477 95.5607L76.2384 68.2971L75.1165 69.9529Z" fill="#496D61"/>
</svg>
