<svg width="18" height="18" viewBox="0 0 18 18" fill="white" xmlns="http://www.w3.org/2000/svg">
<path d="M11.869 15.7445C12.0676 15.5458 12.1792 15.2763 12.1792 14.9953C12.1792 14.7142 12.0676 14.4447 11.869 14.246L6.62303 9.00006L11.869 3.75414C12.062 3.55426 12.1688 3.28656 12.1664 3.00869C12.164 2.73082 12.0525 2.46501 11.856 2.26852C11.6596 2.07202 11.3937 1.96057 11.1159 1.95815C10.838 1.95574 10.5703 2.06256 10.3704 2.25561L4.37523 8.2508C4.17655 8.44954 4.06494 8.71905 4.06494 9.00006C4.06494 9.28108 4.17655 9.55059 4.37523 9.74933L10.3704 15.7445C10.5692 15.9432 10.8387 16.0548 11.1197 16.0548C11.4007 16.0548 11.6702 15.9432 11.869 15.7445Z" fill="#F9F7F7"/>
</svg>
