<svg width="30" height="30" viewBox="0 0 30 30" fill="none" xmlns="http://www.w3.org/2000/svg">
<rect x="30" width="30" height="30" rx="15" transform="rotate(90 30 0)" fill="#54BB8D"/>
<path fill-rule="evenodd" clip-rule="evenodd" d="M2.34352 15.0001C2.34352 14.6271 2.49168 14.2694 2.7554 14.0057C3.01913 13.742 3.37681 13.5938 3.74977 13.5938L22.856 13.5938L17.756 8.49383C17.5076 8.22725 17.3724 7.87466 17.3788 7.51035C17.3852 7.14603 17.5328 6.79844 17.7905 6.54079C18.0481 6.28314 18.3957 6.13555 18.76 6.12913C19.1244 6.1227 19.4769 6.25793 19.7435 6.50633L27.2435 14.0063C27.5069 14.27 27.6548 14.6274 27.6548 15.0001C27.6548 15.3727 27.5069 15.7302 27.2435 15.9938L19.7435 23.4938C19.4769 23.7422 19.1244 23.8775 18.76 23.871C18.3957 23.8646 18.0481 23.717 17.7905 23.4594C17.5328 23.2017 17.3852 22.8541 17.3788 22.4898C17.3724 22.1255 17.5076 21.7729 17.756 21.5063L22.856 16.4063H3.74977C3.37681 16.4063 3.01913 16.2582 2.7554 15.9944C2.49168 15.7307 2.34352 15.373 2.34352 15.0001Z" fill="#F9F7F7"/>
</svg>
