<svg width="48" height="49" viewBox="0 0 48 49" fill="none" xmlns="http://www.w3.org/2000/svg">
<path d="M32.25 33.5001C32.1515 33.5003 32.0539 33.4809 31.9629 33.4432C31.8719 33.4054 31.7893 33.3501 31.7198 33.2803L15.2198 16.7803C15.0851 16.6385 15.0111 16.4496 15.0136 16.2541C15.0161 16.0585 15.0949 15.8716 15.2332 15.7333C15.3715 15.595 15.5584 15.5162 15.7539 15.5137C15.9495 15.5112 16.1383 15.5852 16.2801 15.7199L32.7801 32.2199C32.885 32.3248 32.9563 32.4584 32.9852 32.6039C33.0141 32.7493 32.9993 32.9001 32.9426 33.0371C32.8858 33.1741 32.7897 33.2912 32.6665 33.3736C32.5432 33.456 32.3983 33.5 32.25 33.5001ZM23.625 27.3056L21.1973 24.8779C21.1834 24.8641 21.1655 24.855 21.1462 24.8519C21.1268 24.8488 21.107 24.8518 21.0895 24.8606C21.0719 24.8693 21.0576 24.8833 21.0484 24.9006C21.0393 24.918 21.0358 24.9377 21.0384 24.9571C21.1364 25.587 21.4321 26.1693 21.8829 26.62C22.3336 27.0707 22.9159 27.3665 23.5458 27.4645C23.5652 27.4671 23.5849 27.4636 23.6022 27.4544C23.6196 27.4453 23.6336 27.4309 23.6423 27.4134C23.651 27.3959 23.6541 27.376 23.651 27.3567C23.6479 27.3374 23.6388 27.3195 23.625 27.3056ZM24.375 21.6946L26.8064 24.1251C26.8203 24.1391 26.8382 24.1483 26.8576 24.1516C26.8771 24.1548 26.897 24.1518 26.9147 24.143C26.9323 24.1343 26.9467 24.1201 26.9559 24.1027C26.9651 24.0853 26.9685 24.0654 26.9658 24.0459C26.868 23.4152 26.572 22.832 26.1208 22.3807C25.6695 21.9294 25.0863 21.6335 24.4556 21.5357C24.4361 21.5327 24.4161 21.5359 24.3985 21.545C24.3809 21.554 24.3666 21.5683 24.3577 21.586C24.3488 21.6036 24.3456 21.6236 24.3487 21.6431C24.3518 21.6626 24.361 21.6806 24.375 21.6946Z" fill="black"/>
<path d="M35.0156 25.3137C35.1708 25.0702 35.2529 24.7872 35.252 24.4984C35.2512 24.2096 35.1675 23.9271 35.0109 23.6844C33.7706 21.7663 32.1614 20.1369 30.3577 18.972C28.3594 17.682 26.1562 17 23.985 17C22.8404 17.0016 21.7035 17.1882 20.6184 17.5527C20.5881 17.5628 20.5608 17.5805 20.5392 17.6041C20.5176 17.6277 20.5024 17.6565 20.4951 17.6876C20.4878 17.7188 20.4885 17.7513 20.4973 17.7821C20.5061 17.8128 20.5226 17.8409 20.5453 17.8634L22.7597 20.0778C22.7827 20.1009 22.8113 20.1175 22.8427 20.1261C22.8741 20.1348 22.9072 20.1351 22.9387 20.127C23.6893 19.9441 24.4744 19.9575 25.2183 20.166C25.9622 20.3744 26.6399 20.7708 27.1862 21.3171C27.7325 21.8634 28.1289 22.5411 28.3373 23.285C28.5458 24.0289 28.5592 24.8139 28.3762 25.5645C28.3683 25.596 28.3686 25.629 28.3773 25.6603C28.3859 25.6916 28.4025 25.7202 28.4255 25.7431L31.6106 28.9306C31.6438 28.9638 31.6881 28.9834 31.735 28.9855C31.7819 28.9876 31.8278 28.972 31.8637 28.9419C33.0898 27.8968 34.1522 26.6739 35.0156 25.3137ZM24 29C23.3188 29 22.6465 28.8454 22.0337 28.5478C21.4209 28.2502 20.8837 27.8173 20.4626 27.2819C20.0415 26.7464 19.7474 26.1223 19.6026 25.4567C19.4578 24.7911 19.466 24.1012 19.6266 23.4392C19.6345 23.4077 19.6342 23.3747 19.6255 23.3434C19.6169 23.3121 19.6003 23.2836 19.5773 23.2606L16.4442 20.1261C16.411 20.0928 16.3665 20.0733 16.3195 20.0713C16.2726 20.0693 16.2265 20.085 16.1906 20.1153C15.0473 21.0908 13.9875 22.2777 13.0186 23.6647C12.849 23.9081 12.7556 24.1965 12.7502 24.4931C12.7449 24.7897 12.8279 25.0813 12.9886 25.3306C14.2266 27.268 15.8194 28.8997 17.5955 30.0486C19.5966 31.3438 21.7462 32 23.985 32C25.1412 31.9969 26.2899 31.8143 27.39 31.4586C27.4206 31.4488 27.4482 31.4313 27.4702 31.4078C27.4921 31.3842 27.5076 31.3554 27.5152 31.3242C27.5227 31.2929 27.5222 31.2602 27.5134 31.2293C27.5047 31.1983 27.4882 31.1701 27.4655 31.1473L25.2403 28.9227C25.2174 28.8997 25.1888 28.8831 25.1575 28.8744C25.1262 28.8658 25.0932 28.8655 25.0617 28.8734C24.7141 28.9577 24.3577 29.0002 24 29Z" fill="black"/>
</svg>
