<svg width="14" height="16" viewBox="0 0 14 16" fill="none" xmlns="http://www.w3.org/2000/svg">
<path d="M4.16667 2.16676C3.94565 2.16676 3.73369 2.25455 3.57741 2.41083C3.42113 2.56711 3.33333 2.77908 3.33333 3.00009C3.33333 3.2211 3.42113 3.43306 3.57741 3.58934C3.73369 3.74562 3.94565 3.83342 4.16667 3.83342C4.38768 3.83342 4.59964 3.74562 4.75592 3.58934C4.9122 3.43306 5 3.2211 5 3.00009C5 2.77908 4.9122 2.56711 4.75592 2.41083C4.59964 2.25455 4.38768 2.16676 4.16667 2.16676ZM1.80833 2.16676C1.9805 1.67881 2.29978 1.25628 2.72217 0.957413C3.14455 0.658543 3.64924 0.498047 4.16667 0.498047C4.68409 0.498047 5.18878 0.658543 5.61117 0.957413C6.03355 1.25628 6.35283 1.67881 6.525 2.16676H12.5C12.721 2.16676 12.933 2.25455 13.0893 2.41083C13.2455 2.56711 13.3333 2.77908 13.3333 3.00009C13.3333 3.2211 13.2455 3.43306 13.0893 3.58934C12.933 3.74562 12.721 3.83342 12.5 3.83342H6.525C6.35283 4.32137 6.03355 4.74389 5.61117 5.04276C5.18878 5.34163 4.68409 5.50213 4.16667 5.50213C3.64924 5.50213 3.14455 5.34163 2.72217 5.04276C2.29978 4.74389 1.9805 4.32137 1.80833 3.83342H0.833333C0.61232 3.83342 0.400358 3.74562 0.244078 3.58934C0.0877975 3.43306 0 3.2211 0 3.00009C0 2.77908 0.0877975 2.56711 0.244078 2.41083C0.400358 2.25455 0.61232 2.16676 0.833333 2.16676H1.80833ZM9.16667 7.16676C8.94565 7.16676 8.73369 7.25455 8.57741 7.41083C8.42113 7.56711 8.33333 7.77908 8.33333 8.00009C8.33333 8.2211 8.42113 8.43306 8.57741 8.58934C8.73369 8.74562 8.94565 8.83342 9.16667 8.83342C9.38768 8.83342 9.59964 8.74562 9.75592 8.58934C9.9122 8.43306 10 8.2211 10 8.00009C10 7.77908 9.9122 7.56711 9.75592 7.41083C9.59964 7.25455 9.38768 7.16676 9.16667 7.16676ZM6.80833 7.16676C6.9805 6.67881 7.29978 6.25628 7.72217 5.95741C8.14455 5.65854 8.64924 5.49805 9.16667 5.49805C9.68409 5.49805 10.1888 5.65854 10.6112 5.95741C11.0336 6.25628 11.3528 6.67881 11.525 7.16676H12.5C12.721 7.16676 12.933 7.25455 13.0893 7.41083C13.2455 7.56711 13.3333 7.77908 13.3333 8.00009C13.3333 8.2211 13.2455 8.43306 13.0893 8.58934C12.933 8.74562 12.721 8.83342 12.5 8.83342H11.525C11.3528 9.32137 11.0336 9.74389 10.6112 10.0428C10.1888 10.3416 9.68409 10.5021 9.16667 10.5021C8.64924 10.5021 8.14455 10.3416 7.72217 10.0428C7.29978 9.74389 6.9805 9.32137 6.80833 8.83342H0.833333C0.61232 8.83342 0.400358 8.74562 0.244078 8.58934C0.0877975 8.43306 0 8.2211 0 8.00009C0 7.77908 0.0877975 7.56711 0.244078 7.41083C0.400358 7.25455 0.61232 7.16676 0.833333 7.16676H6.80833ZM4.16667 12.1668C3.94565 12.1668 3.73369 12.2546 3.57741 12.4108C3.42113 12.5671 3.33333 12.7791 3.33333 13.0001C3.33333 13.2211 3.42113 13.4331 3.57741 13.5893C3.73369 13.7456 3.94565 13.8334 4.16667 13.8334C4.38768 13.8334 4.59964 13.7456 4.75592 13.5893C4.9122 13.4331 5 13.2211 5 13.0001C5 12.7791 4.9122 12.5671 4.75592 12.4108C4.59964 12.2546 4.38768 12.1668 4.16667 12.1668ZM1.80833 12.1668C1.9805 11.6788 2.29978 11.2563 2.72217 10.9574C3.14455 10.6585 3.64924 10.498 4.16667 10.498C4.68409 10.498 5.18878 10.6585 5.61117 10.9574C6.03355 11.2563 6.35283 11.6788 6.525 12.1668H12.5C12.721 12.1668 12.933 12.2546 13.0893 12.4108C13.2455 12.5671 13.3333 12.7791 13.3333 13.0001C13.3333 13.2211 13.2455 13.4331 13.0893 13.5893C12.933 13.7456 12.721 13.8334 12.5 13.8334H6.525C6.35283 14.3214 6.03355 14.7439 5.61117 15.0428C5.18878 15.3416 4.68409 15.5021 4.16667 15.5021C3.64924 15.5021 3.14455 15.3416 2.72217 15.0428C2.29978 14.7439 1.9805 14.3214 1.80833 13.8334H0.833333C0.61232 13.8334 0.400358 13.7456 0.244078 13.5893C0.0877975 13.4331 0 13.2211 0 13.0001C0 12.7791 0.0877975 12.5671 0.244078 12.4108C0.400358 12.2546 0.61232 12.1668 0.833333 12.1668H1.80833Z" fill="#54BB8D"/>
</svg>
