<svg width="14" height="15" viewBox="0 0 14 15" fill="none" xmlns="http://www.w3.org/2000/svg">
<path d="M4.16667 1.66871C3.94565 1.66871 3.73369 1.75651 3.57741 1.91279C3.42113 2.06907 3.33333 2.28103 3.33333 2.50204C3.33333 2.72306 3.42113 2.93502 3.57741 3.0913C3.73369 3.24758 3.94565 3.33538 4.16667 3.33538C4.38768 3.33538 4.59964 3.24758 4.75592 3.0913C4.9122 2.93502 5 2.72306 5 2.50204C5 2.28103 4.9122 2.06907 4.75592 1.91279C4.59964 1.75651 4.38768 1.66871 4.16667 1.66871ZM1.80833 1.66871C1.9805 1.18076 2.29978 0.758237 2.72217 0.459367C3.14455 0.160496 3.64924 0 4.16667 0C4.68409 0 5.18878 0.160496 5.61117 0.459367C6.03355 0.758237 6.35283 1.18076 6.525 1.66871H12.5C12.721 1.66871 12.933 1.75651 13.0893 1.91279C13.2455 2.06907 13.3333 2.28103 13.3333 2.50204C13.3333 2.72306 13.2455 2.93502 13.0893 3.0913C12.933 3.24758 12.721 3.33538 12.5 3.33538H6.525C6.35283 3.82332 6.03355 4.24585 5.61117 4.54472C5.18878 4.84359 4.68409 5.00408 4.16667 5.00408C3.64924 5.00408 3.14455 4.84359 2.72217 4.54472C2.29978 4.24585 1.9805 3.82332 1.80833 3.33538H0.833333C0.61232 3.33538 0.400358 3.24758 0.244078 3.0913C0.0877975 2.93502 0 2.72306 0 2.50204C0 2.28103 0.0877975 2.06907 0.244078 1.91279C0.400358 1.75651 0.61232 1.66871 0.833333 1.66871H1.80833ZM9.16667 6.66871C8.94565 6.66871 8.73369 6.75651 8.57741 6.91279C8.42113 7.06907 8.33333 7.28103 8.33333 7.50204C8.33333 7.72306 8.42113 7.93502 8.57741 8.0913C8.73369 8.24758 8.94565 8.33538 9.16667 8.33538C9.38768 8.33538 9.59964 8.24758 9.75592 8.0913C9.9122 7.93502 10 7.72306 10 7.50204C10 7.28103 9.9122 7.06907 9.75592 6.91279C9.59964 6.75651 9.38768 6.66871 9.16667 6.66871ZM6.80833 6.66871C6.9805 6.18076 7.29978 5.75824 7.72217 5.45937C8.14455 5.1605 8.64924 5 9.16667 5C9.68409 5 10.1888 5.1605 10.6112 5.45937C11.0336 5.75824 11.3528 6.18076 11.525 6.66871H12.5C12.721 6.66871 12.933 6.75651 13.0893 6.91279C13.2455 7.06907 13.3333 7.28103 13.3333 7.50204C13.3333 7.72306 13.2455 7.93502 13.0893 8.0913C12.933 8.24758 12.721 8.33538 12.5 8.33538H11.525C11.3528 8.82332 11.0336 9.24585 10.6112 9.54472C10.1888 9.84359 9.68409 10.0041 9.16667 10.0041C8.64924 10.0041 8.14455 9.84359 7.72217 9.54472C7.29978 9.24585 6.9805 8.82332 6.80833 8.33538H0.833333C0.61232 8.33538 0.400358 8.24758 0.244078 8.0913C0.0877975 7.93502 0 7.72306 0 7.50204C0 7.28103 0.0877975 7.06907 0.244078 6.91279C0.400358 6.75651 0.61232 6.66871 0.833333 6.66871H6.80833ZM4.16667 11.6687C3.94565 11.6687 3.73369 11.7565 3.57741 11.9128C3.42113 12.0691 3.33333 12.281 3.33333 12.502C3.33333 12.7231 3.42113 12.935 3.57741 13.0913C3.73369 13.2476 3.94565 13.3354 4.16667 13.3354C4.38768 13.3354 4.59964 13.2476 4.75592 13.0913C4.9122 12.935 5 12.7231 5 12.502C5 12.281 4.9122 12.0691 4.75592 11.9128C4.59964 11.7565 4.38768 11.6687 4.16667 11.6687ZM1.80833 11.6687C1.9805 11.1808 2.29978 10.7582 2.72217 10.4594C3.14455 10.1605 3.64924 10 4.16667 10C4.68409 10 5.18878 10.1605 5.61117 10.4594C6.03355 10.7582 6.35283 11.1808 6.525 11.6687H12.5C12.721 11.6687 12.933 11.7565 13.0893 11.9128C13.2455 12.0691 13.3333 12.281 13.3333 12.502C13.3333 12.7231 13.2455 12.935 13.0893 13.0913C12.933 13.2476 12.721 13.3354 12.5 13.3354H6.525C6.35283 13.8233 6.03355 14.2458 5.61117 14.5447C5.18878 14.8436 4.68409 15.0041 4.16667 15.0041C3.64924 15.0041 3.14455 14.8436 2.72217 14.5447C2.29978 14.2458 1.9805 13.8233 1.80833 13.3354H0.833333C0.61232 13.3354 0.400358 13.2476 0.244078 13.0913C0.0877975 12.935 0 12.7231 0 12.502C0 12.281 0.0877975 12.0691 0.244078 11.9128C0.400358 11.7565 0.61232 11.6687 0.833333 11.6687H1.80833Z" fill="#8899A6"/>
</svg>
