<svg width="30" height="30" viewBox="0 0 30 30" fill="none" xmlns="http://www.w3.org/2000/svg">
<circle cx="15" cy="15" r="15" fill="#3D9970"/>
<path d="M14.9475 10.5C15.8102 10.5001 16.6546 10.7482 17.3803 11.2147C18.1059 11.6812 18.6822 12.3465 19.0404 13.1312C19.3987 13.916 19.5238 14.7872 19.4009 15.641C19.278 16.4949 18.9123 17.2954 18.3473 17.9473C17.7823 18.5992 17.0418 19.0749 16.2141 19.3179C15.3863 19.5608 14.5062 19.5607 13.6785 19.3176C12.8508 19.0744 12.1105 18.5985 11.5456 17.9465C10.9808 17.2945 10.6152 16.4939 10.4925 15.64C10.4644 15.4431 10.3592 15.2654 10.2001 15.146C10.041 15.0267 9.84095 14.9754 9.64403 15.0035C9.44711 15.0316 9.26942 15.1368 9.15005 15.2959C9.03068 15.4551 8.97942 15.6551 9.00753 15.852C9.19716 17.1759 9.8236 18.3985 10.7874 19.3258C11.7512 20.253 12.9972 20.8317 14.3274 20.97C15.6577 21.1083 16.996 20.7982 18.1299 20.0891C19.2638 19.3799 20.1284 18.3123 20.5862 17.0557C21.0441 15.7991 21.0691 14.4255 20.6573 13.1531C20.2454 11.8807 19.4203 10.7823 18.3129 10.0324C17.2056 9.28243 15.8794 8.92389 14.545 9.01368C13.2106 9.10348 11.9444 9.63645 10.9475 10.528V9.75C10.9475 9.55109 10.8685 9.36032 10.7279 9.21967C10.5872 9.07902 10.3964 9 10.1975 9C9.99862 9 9.80785 9.07902 9.6672 9.21967C9.52655 9.36032 9.44753 9.55109 9.44753 9.75V12.75C9.44753 13.164 9.78353 13.5 10.1975 13.5H12.6975C12.8964 13.5 13.0872 13.421 13.2279 13.2803C13.3685 13.1397 13.4475 12.9489 13.4475 12.75C13.4475 12.5511 13.3685 12.3603 13.2279 12.2197C13.0872 12.079 12.8964 12 12.6975 12H11.5935C12.0151 11.5275 12.5319 11.1496 13.11 10.8911C13.6881 10.6325 14.3143 10.4993 14.9475 10.5ZM15.4475 12.75C15.4475 12.5511 15.3685 12.3603 15.2279 12.2197C15.0872 12.079 14.8964 12 14.6975 12C14.4986 12 14.3079 12.079 14.1672 12.2197C14.0265 12.3603 13.9475 12.5511 13.9475 12.75V15.25C13.9475 15.664 14.2835 16 14.6975 16H16.6975C16.8964 16 17.0872 15.921 17.2279 15.7803C17.3685 15.6397 17.4475 15.4489 17.4475 15.25C17.4475 15.0511 17.3685 14.8603 17.2279 14.7197C17.0872 14.579 16.8964 14.5 16.6975 14.5H15.4475V12.75Z" fill="#F9F7F7"/>
</svg>
