<svg width="42" height="42" viewBox="0 0 42 42" fill="none" xmlns="http://www.w3.org/2000/svg">
<circle cx="21" cy="21" r="21" fill="#3D9970"/>
<path d="M19.1667 23.75H16.4167C14.3916 23.75 12.75 25.3916 12.75 27.4167V28.3333" stroke="#1E1E2D" stroke-width="1.3" stroke-linecap="round" stroke-linejoin="round"/>
<path d="M28.333 29.2501H22.833" stroke="#1E1E2D" stroke-width="1.3" stroke-linecap="round" stroke-linejoin="round"/>
<path fill-rule="evenodd" clip-rule="evenodd" d="M23.1015 24.0565L25.8896 21.2685C26.0615 21.0966 26.2946 21 26.5377 21C26.7809 21 27.014 21.0966 27.1859 21.2685L28.0645 22.1471C28.4225 22.5051 28.4225 23.0855 28.0645 23.4435L25.2765 26.2315C25.1046 26.4034 24.8714 26.5 24.6283 26.5H23.2913C23.0382 26.5 22.833 26.2948 22.833 26.0417V24.7047C22.833 24.4616 22.9296 24.2285 23.1015 24.0565Z" stroke="#1E1E2D" stroke-width="1.3" stroke-linecap="round" stroke-linejoin="round"/>
<circle cx="20.0837" cy="16.4167" r="3.66667" stroke="#1E1E2D" stroke-width="1.3" stroke-linecap="round" stroke-linejoin="round"/>
</svg>
