<svg width="20" height="24" viewBox="0 0 20 24" fill="none" xmlns="http://www.w3.org/2000/svg">
<path d="M7.83333 21.25H12.1667C12.1667 22.4416 11.1917 23.4166 10 23.4166C8.80833 23.4166 7.83333 22.4416 7.83333 21.25ZM19.75 19.0833V20.1666H0.25V19.0833L2.41667 16.9166V10.4166C2.41667 7.05829 4.58333 4.13329 7.83333 3.15829V2.83329C7.83333 1.64163 8.80833 0.666626 10 0.666626C11.1917 0.666626 12.1667 1.64163 12.1667 2.83329V3.15829C15.4167 4.13329 17.5833 7.05829 17.5833 10.4166V16.9166L19.75 19.0833ZM15.4167 10.4166C15.4167 7.38329 13.0333 4.99996 10 4.99996C6.96667 4.99996 4.58333 7.38329 4.58333 10.4166V18H15.4167V10.4166Z" fill="#202020"/>
</svg>
