<svg width="48" height="48" viewBox="0 0 48 48" fill="none" xmlns="http://www.w3.org/2000/svg">
<path d="M24 27C25.6569 27 27 25.6569 27 24C27 22.3431 25.6569 21 24 21C22.3431 21 21 22.3431 21 24C21 25.6569 22.3431 27 24 27Z" fill="black"/>
<path d="M35.0081 23.1844C33.7678 21.2663 32.1586 19.6369 30.3548 18.472C28.3593 17.182 26.1562 16.5 23.984 16.5C21.9909 16.5 20.0311 17.0695 18.1589 18.1927C16.2496 19.3378 14.52 21.0108 13.0176 23.1647C12.848 23.4081 12.7546 23.6965 12.7493 23.9931C12.7439 24.2897 12.8269 24.5813 12.9876 24.8306C14.2256 26.768 15.8189 28.3997 17.5945 29.5486C19.5937 30.8438 21.7453 31.5 23.984 31.5C26.1736 31.5 28.3814 30.8236 30.3684 29.5444C32.1712 28.3833 33.7771 26.7478 35.0128 24.8137C35.168 24.5702 35.25 24.2872 35.2492 23.9984C35.2483 23.7096 35.1647 23.4271 35.0081 23.1844ZM24 28.5C23.1099 28.5 22.2399 28.2361 21.4999 27.7416C20.7599 27.2471 20.1831 26.5443 19.8425 25.7221C19.5019 24.8998 19.4128 23.995 19.5864 23.1221C19.7601 22.2492 20.1886 21.4474 20.818 20.818C21.4473 20.1887 22.2491 19.7601 23.1221 19.5865C23.995 19.4128 24.8998 19.5019 25.722 19.8425C26.5443 20.1831 27.2471 20.7599 27.7416 21.4999C28.236 22.24 28.5 23.11 28.5 24C28.4986 25.1931 28.024 26.3369 27.1804 27.1805C26.3368 28.0241 25.193 28.4986 24 28.5Z" fill="black"/>
</svg>
